<svg width="206" height="45" viewBox="0 0 206 45" fill="none" xmlns="http://www.w3.org/2000/svg">
<g filter="url(#filter0_d_520_730)">
<path d="M24.8295 1.09091H31.1023L27.0114 25.7216C26.6477 27.9602 25.875 29.8864 24.6932 31.5C23.5227 33.1023 22.0341 34.3352 20.2273 35.1989C18.4318 36.0511 16.3977 36.4773 14.125 36.4773C12.0682 36.4773 10.2727 36.1136 8.73864 35.3864C7.20455 34.6477 6.07386 33.5568 5.34659 32.1136C4.61932 30.6591 4.43182 28.8636 4.78409 26.7273H10.9886C10.8523 27.6932 10.9205 28.517 11.1932 29.1989C11.4773 29.8807 11.9318 30.3977 12.5568 30.75C13.1932 31.1023 13.9773 31.2784 14.9091 31.2784C15.9432 31.2784 16.858 31.0568 17.6534 30.6136C18.4602 30.1705 19.1307 29.5227 19.6648 28.6705C20.1989 27.8182 20.5739 26.7784 20.7898 25.5511L24.8295 1.09091ZM65.8494 12.8693H59.5767C59.5767 11.8239 59.4062 10.8977 59.0653 10.0909C58.7244 9.27273 58.2472 8.57954 57.6335 8.01136C57.0199 7.44318 56.2926 7.01704 55.4517 6.73295C54.6108 6.4375 53.679 6.28977 52.6562 6.28977C50.7017 6.28977 48.8835 6.78409 47.2017 7.77273C45.5199 8.76136 44.0938 10.1989 42.9233 12.0852C41.7528 13.9602 40.9403 16.2386 40.4858 18.9205C40.0653 21.5341 40.1051 23.7216 40.6051 25.483C41.1165 27.2443 42.0028 28.5739 43.2642 29.4716C44.5256 30.358 46.0597 30.8011 47.8665 30.8011C48.9688 30.8011 50.0256 30.6648 51.0369 30.392C52.0483 30.108 52.9801 29.6932 53.8324 29.1477C54.696 28.5909 55.4517 27.9148 56.0994 27.1193C56.7585 26.3239 57.2699 25.4205 57.6335 24.4091H63.9915C63.4688 26.0682 62.7017 27.6307 61.6903 29.0966C60.679 30.5511 59.4631 31.8352 58.0426 32.9489C56.6222 34.0511 55.0313 34.9148 53.2699 35.5398C51.5085 36.1648 49.6108 36.4773 47.5767 36.4773C44.4517 36.4773 41.7756 35.75 39.5483 34.2955C37.3324 32.8295 35.7415 30.733 34.7756 28.0057C33.8097 25.267 33.6392 21.9886 34.2642 18.1705C34.8892 14.4545 36.0938 11.2898 37.8778 8.67614C39.6733 6.0625 41.8608 4.06818 44.4403 2.69318C47.0313 1.30682 49.821 0.613635 52.8097 0.613635C54.7869 0.613635 56.5824 0.886362 58.196 1.43182C59.821 1.97727 61.2131 2.77841 62.3722 3.83523C63.5313 4.88068 64.4119 6.16477 65.0142 7.6875C65.6278 9.19886 65.9063 10.9261 65.8494 12.8693ZM102.876 10.858C102.922 9.27841 102.439 8.06818 101.428 7.22727C100.428 6.38636 98.9901 5.96591 97.1151 5.96591C95.7969 5.96591 94.6321 6.16477 93.6207 6.5625C92.6207 6.94886 91.8139 7.48864 91.2003 8.18182C90.5866 8.86364 90.206 9.64205 90.0582 10.517C89.9332 11.233 89.9957 11.858 90.2457 12.392C90.4957 12.9261 90.8764 13.3807 91.3878 13.7557C91.9105 14.1307 92.5014 14.4432 93.1605 14.6932C93.831 14.9432 94.5128 15.1534 95.206 15.3239L98.3423 16.142C99.5923 16.4489 100.786 16.8636 101.922 17.3864C103.058 17.8977 104.041 18.5568 104.871 19.3636C105.712 20.1591 106.325 21.1193 106.712 22.2443C107.098 23.3693 107.161 24.6875 106.899 26.1989C106.558 28.2443 105.734 30.0455 104.428 31.6023C103.132 33.1477 101.428 34.358 99.3139 35.233C97.2116 36.0966 94.7628 36.5284 91.9673 36.5284C89.2628 36.5284 86.9787 36.108 85.1151 35.267C83.2514 34.4148 81.8878 33.1818 81.0241 31.5682C80.1719 29.9545 79.8991 27.9943 80.206 25.6875H86.4276C86.3026 26.9034 86.5014 27.9148 87.0241 28.7216C87.5582 29.5284 88.3253 30.1307 89.3253 30.5284C90.3253 30.9261 91.4844 31.125 92.8026 31.125C94.1776 31.125 95.4219 30.9205 96.5355 30.5114C97.6491 30.0909 98.5582 29.5114 99.2628 28.7727C99.9787 28.0227 100.416 27.1477 100.575 26.1477C100.734 25.25 100.604 24.5 100.183 23.8977C99.7628 23.2955 99.1094 22.7955 98.223 22.3977C97.348 21.9886 96.3026 21.625 95.0866 21.3068L91.3026 20.2841C88.5639 19.5341 86.4844 18.4091 85.0639 16.9091C83.6548 15.4091 83.1548 13.4091 83.5639 10.9091C83.9048 8.84091 84.7628 7.03977 86.1378 5.50568C87.5128 3.96023 89.2344 2.76136 91.3026 1.90909C93.3707 1.04545 95.6321 0.613635 98.0866 0.613635C100.564 0.613635 102.661 1.04545 104.376 1.90909C106.104 2.77273 107.365 3.97727 108.161 5.52273C108.967 7.05682 109.234 8.83523 108.962 10.858H102.876ZM128.082 9.81818L127.281 14.5909H112.247L113.031 9.81818H128.082ZM117.77 3.54545H123.94L119.849 28.125C119.724 28.9545 119.747 29.5909 119.918 30.0341C120.099 30.4659 120.389 30.7614 120.787 30.9205C121.196 31.0795 121.656 31.1591 122.168 31.1591C122.543 31.1591 122.895 31.1307 123.224 31.0739C123.554 31.0057 123.815 30.9545 124.009 30.9205L124.281 35.7443C123.906 35.858 123.401 35.983 122.764 36.1193C122.139 36.2557 121.389 36.3352 120.514 36.358C118.946 36.392 117.582 36.1534 116.423 35.642C115.276 35.1193 114.435 34.3182 113.901 33.2386C113.378 32.1477 113.259 30.7841 113.543 29.1477L117.77 3.54545ZM140.087 36.5114C137.507 36.5114 135.359 35.9432 133.643 34.8068C131.939 33.6705 130.74 32.0739 130.047 30.017C129.354 27.9602 129.229 25.5739 129.672 22.858C130.115 20.1761 131.001 17.8295 132.331 15.8182C133.672 13.8068 135.359 12.25 137.393 11.1477C139.439 10.0341 141.729 9.47727 144.263 9.47727C146.842 9.47727 148.984 10.0511 150.689 11.1989C152.393 12.3352 153.592 13.9318 154.286 15.9886C154.99 18.0455 155.121 20.4432 154.678 23.1818C154.246 25.8523 153.354 28.1875 152.001 30.1875C150.661 32.1875 148.973 33.7443 146.939 34.858C144.905 35.9602 142.621 36.5114 140.087 36.5114ZM140.598 31.5682C142.03 31.5682 143.286 31.1818 144.365 30.4091C145.456 29.625 146.348 28.5739 147.041 27.2557C147.746 25.9261 148.234 24.4489 148.507 22.8239C148.757 21.2557 148.763 19.8352 148.524 18.5625C148.286 17.2784 147.774 16.2614 146.99 15.5114C146.217 14.75 145.143 14.3693 143.768 14.3693C142.337 14.3693 141.07 14.767 139.967 15.5625C138.876 16.3466 137.984 17.4034 137.291 18.733C136.598 20.0511 136.121 21.5227 135.859 23.1477C135.598 24.7159 135.587 26.1364 135.825 27.4091C136.064 28.6818 136.575 29.6932 137.359 30.4432C138.143 31.1932 139.223 31.5682 140.598 31.5682ZM157.801 36L162.165 9.81818H168.148L167.415 14.1818H167.688C168.403 12.6705 169.415 11.5057 170.722 10.6875C172.04 9.85795 173.449 9.44318 174.949 9.44318C175.301 9.44318 175.682 9.46023 176.091 9.49432C176.5 9.51704 176.852 9.55682 177.148 9.61364L176.193 15.2898C175.932 15.1989 175.523 15.1193 174.966 15.0511C174.42 14.9716 173.881 14.9318 173.347 14.9318C172.222 14.9318 171.176 15.1761 170.21 15.6648C169.256 16.142 168.449 16.8068 167.79 17.6591C167.131 18.5114 166.705 19.4943 166.511 20.608L163.972 36H157.801ZM187.324 36.5114C184.699 36.5114 182.528 35.9659 180.812 34.875C179.097 33.7727 177.892 32.2159 177.199 30.2045C176.517 28.1818 176.403 25.8011 176.858 23.0625C177.301 20.3693 178.205 18.0057 179.568 15.9716C180.932 13.9261 182.636 12.3352 184.682 11.1989C186.739 10.0511 189.011 9.47727 191.5 9.47727C193.114 9.47727 194.597 9.73864 195.949 10.2614C197.301 10.7727 198.443 11.5682 199.375 12.6477C200.307 13.7273 200.949 15.1023 201.301 16.7727C201.653 18.4318 201.636 20.4091 201.25 22.7045L200.96 24.5966H179.483L180.148 20.4375H195.693C195.898 19.2557 195.83 18.2045 195.489 17.2841C195.148 16.3523 194.58 15.6193 193.784 15.0852C192.989 14.5511 191.994 14.2841 190.801 14.2841C189.585 14.2841 188.449 14.5966 187.392 15.2216C186.347 15.8352 185.466 16.6307 184.75 17.608C184.034 18.5852 183.58 19.6136 183.386 20.6932L182.688 24.6818C182.438 26.3182 182.494 27.6534 182.858 28.6875C183.222 29.7216 183.858 30.483 184.767 30.9716C185.676 31.4602 186.824 31.7045 188.21 31.7045C189.119 31.7045 189.96 31.5795 190.733 31.3295C191.506 31.0795 192.193 30.7045 192.795 30.2045C193.409 29.6932 193.92 29.0682 194.33 28.3295L199.972 28.9773C199.347 30.5 198.432 31.8295 197.227 32.9659C196.023 34.0909 194.58 34.9659 192.898 35.5909C191.227 36.2045 189.369 36.5114 187.324 36.5114Z" fill="black"/>
</g>
<defs>
<filter id="filter0_d_520_730" x="0.255615" y="0.613635" width="205.574" height="43.9148" filterUnits="userSpaceOnUse" color-interpolation-filters="sRGB">
<feFlood flood-opacity="0" result="BackgroundImageFix"/>
<feColorMatrix in="SourceAlpha" type="matrix" values="0 0 0 0 0 0 0 0 0 0 0 0 0 0 0 0 0 0 127 0" result="hardAlpha"/>
<feOffset dy="4"/>
<feGaussianBlur stdDeviation="2"/>
<feComposite in2="hardAlpha" operator="out"/>
<feColorMatrix type="matrix" values="0 0 0 0 0 0 0 0 0 0 0 0 0 0 0 0 0 0 0.25 0"/>
<feBlend mode="normal" in2="BackgroundImageFix" result="effect1_dropShadow_520_730"/>
<feBlend mode="normal" in="SourceGraphic" in2="effect1_dropShadow_520_730" result="shape"/>
</filter>
</defs>
</svg>
